<?xml version="1.0" standalone="no"?>
<!DOCTYPE svg PUBLIC "-//W3C//DTD SVG 20010904//EN"
 "http://www.w3.org/TR/2001/REC-SVG-20010904/DTD/svg10.dtd">
<svg version="1.0" xmlns="http://www.w3.org/2000/svg"
 width="1116.000000pt" height="1280.000000pt" viewBox="0 0 1116.000000 1280.000000"
 preserveAspectRatio="xMidYMid meet">
<metadata>
Created by potrace 1.15, written by Peter Selinger 2001-2017
</metadata>
<g transform="translate(0.000000,1280.000000) scale(0.100000,-0.100000)"
fill="#000000" stroke="none">
<path d="M3312 12784 c-41 -28 -29 -60 56 -148 341 -357 492 -692 522 -1161 5
-88 15 -908 21 -1821 l12 -1662 -1013 -1518 c-557 -836 -1338 -2005 -1735
-2599 -397 -594 -745 -1121 -774 -1172 -96 -169 -195 -398 -246 -568 -15 -49
-43 -132 -62 -184 -126 -342 -120 -723 19 -1039 42 -97 169 -303 250 -408 219
-284 595 -468 1005 -492 62 -4 1988 -7 4280 -7 3914 0 4174 1 4268 17 473 83
811 279 1020 593 285 430 298 982 36 1601 -77 180 -251 469 -391 648 -71 91
-3343 5108 -3346 5131 -2 11 -8 236 -14 500 -14 661 -28 1263 -41 1759 -7 296
-7 422 0 429 15 15 14 60 -1 75 -10 10 -13 112 -13 420 0 384 1 414 23 537 44
239 128 451 259 646 60 90 103 143 226 282 81 92 89 113 49 145 -13 9 -468 12
-2202 12 -1962 0 -2188 -2 -2208 -16z m4199 -156 c-259 -316 -379 -574 -438
-938 -15 -98 -18 -173 -18 -512 l1 -398 -554 0 c-358 0 -560 -4 -572 -10 -34
-18 -44 -48 -25 -76 l15 -24 569 0 569 0 6 -162 c5 -147 17 -647 31 -1358 3
-140 8 -306 11 -367 l5 -113 -594 0 c-464 0 -597 -3 -605 -12 -22 -29 -23 -57
-3 -77 21 -21 29 -21 611 -21 l590 0 1 -92 c1 -51 4 -190 8 -308 l6 -215 848
-1299 c466 -714 847 -1300 845 -1301 -2 -2 -482 1 -1068 6 -2563 21 -3623 29
-4485 35 l-920 5 -945 -1414 c-520 -778 -947 -1413 -948 -1412 -11 10 253 409
1841 2788 l1741 2607 -12 1368 c-7 752 -12 1522 -12 1712 0 465 -17 653 -81
876 -70 246 -199 474 -394 697 l-66 77 2046 0 2047 0 -51 -62z m3242 -12071
c-26 -33 -150 -144 -198 -177 -126 -87 -277 -156 -433 -200 -146 -41 -150 -37
-8 10 225 75 449 200 586 329 71 66 81 73 53 38z"/>
<path d="M6708 6509 c-25 -14 -24 -75 1 -89 31 -16 1232 -14 1253 3 28 21 31
54 9 76 -21 21 -29 21 -633 21 -398 -1 -619 -4 -630 -11z"/>
</g>
</svg>
