<?xml version="1.0" standalone="no"?>
<!DOCTYPE svg PUBLIC "-//W3C//DTD SVG 20010904//EN"
 "http://www.w3.org/TR/2001/REC-SVG-20010904/DTD/svg10.dtd">
<svg version="1.0" xmlns="http://www.w3.org/2000/svg"
 width="1017.000000pt" height="1280.000000pt" viewBox="0 0 1017.000000 1280.000000"
 preserveAspectRatio="xMidYMid meet">
<metadata>
Created by potrace 1.15, written by Peter Selinger 2001-2017
</metadata>
<g transform="translate(0.000000,1280.000000) scale(0.100000,-0.100000)"
fill="#673ab7" stroke="none">
<path d="M4725 12790 c-631 -37 -1110 -181 -1141 -344 -9 -52 -1 -73 66 -166
l60 -85 0 -1282 0 -1283 -501 -1127 c-1654 -3721 -3041 -6850 -3072 -6929 -94
-238 -131 -415 -131 -619 0 -125 4 -163 22 -229 118 -415 492 -623 1262 -703
165 -17 374 -18 3795 -18 3421 0 3630 1 3795 18 682 71 1050 242 1210 564 57
116 74 201 74 368 0 204 -37 381 -131 619 -31 79 -1418 3208 -3072 6929 l-501
1127 0 1283 0 1282 60 84 c89 125 90 172 3 252 -205 189 -1007 304 -1798 259z
m701 -61 c213 -12 443 -40 614 -75 288 -58 490 -156 490 -238 0 -35 -90 -110
-173 -144 -653 -272 -2404 -213 -2689 91 -36 37 -35 68 2 110 160 182 981 302
1756 256z m976 -1803 l-2 -1304 54 -124 c29 -67 818 -1842 1751 -3943 934
-2101 1714 -3861 1735 -3910 60 -142 106 -282 136 -411 35 -151 40 -377 11
-484 -113 -423 -531 -626 -1397 -680 -227 -14 -6983 -14 -7210 0 -772 48
-1184 214 -1344 542 -58 119 -71 182 -70 353 1 169 25 300 91 489 50 144 -70
-128 1849 4192 l1764 3972 0 1301 c0 715 2 1301 5 1301 2 0 26 -9 53 -19 216
-85 595 -144 1032 -160 562 -20 1108 35 1435 144 63 21 110 40 110 45 0 0 -1
-587 -3 -1304z"/>
<path d="M4670 12664 c-25 -2 -108 -8 -185 -14 -577 -45 -875 -153 -769 -279
75 -90 324 -148 824 -193 218 -19 915 -16 1145 5 531 50 785 126 785 233 0 67
-85 118 -270 160 -287 66 -515 85 -1045 89 -242 1 -460 1 -485 -1z m1070 -78
c344 -36 567 -84 642 -137 51 -37 33 -58 -87 -102 -119 -42 -358 -82 -665
-109 -191 -17 -896 -17 -1090 0 -422 37 -718 99 -775 162 -15 16 -14 19 14 43
77 64 402 127 807 157 191 13 984 4 1154 -14z"/>
<path d="M6295 8889 c-157 -64 -576 -147 -810 -162 -35 -2 -40 -5 -43 -29 -3
-27 -2 -28 50 -28 175 0 618 87 817 161 73 27 72 26 59 54 -13 29 -10 29 -73
4z"/>
<path d="M6656 7769 c-140 -56 -491 -129 -715 -151 l-131 -12 0 -28 c0 -26 3
-28 38 -28 158 0 541 72 777 145 98 30 117 42 109 73 -7 26 -13 26 -78 1z"/>
<path d="M7058 6664 c-91 -48 -479 -134 -720 -161 l-158 -17 0 -28 c0 -34 -4
-33 177 -13 230 26 584 105 716 160 41 17 42 20 24 52 -11 20 -14 20 -39 7z"/>
<path d="M7418 5544 c-40 -21 -245 -78 -388 -108 -112 -23 -265 -45 -432 -62
-53 -5 -58 -8 -58 -29 0 -13 4 -26 8 -29 14 -8 220 14 372 40 161 27 338 70
457 109 106 35 107 36 92 68 -14 31 -15 31 -51 11z"/>
<path d="M7780 4424 c-146 -63 -629 -163 -792 -164 -61 0 -78 -7 -78 -34 0
-13 2 -25 5 -27 7 -8 205 11 334 31 196 32 533 118 579 148 9 6 11 18 6 35 -7
31 -8 31 -54 11z"/>
<path d="M4260 4074 c-1767 -44 -2933 -177 -3069 -350 -12 -15 -21 -34 -21
-44 0 -9 -24 -70 -54 -136 -528 -1174 -851 -1898 -879 -1974 -83 -223 -112
-367 -112 -555 0 -199 28 -304 116 -435 179 -267 531 -411 1159 -472 199 -19
7171 -19 7370 0 628 61 980 205 1159 472 88 131 116 236 116 435 0 188 -29
332 -112 555 -29 79 -452 1028 -830 1865 -53 116 -100 225 -105 244 -14 50
-62 87 -153 120 -335 121 -1133 206 -2450 262 -236 9 -1865 20 -2135 13z
m4700 -482 c-8 -3 -24 -9 -35 -14 -14 -7 -13 -4 5 11 13 10 29 17 34 13 6 -3
4 -8 -4 -10z m-8557 -1797 c-3 -9 -8 -14 -10 -11 -3 3 -2 9 2 15 9 16 15 13 8
-4z m-62 -151 c-26 -65 -60 -156 -76 -202 -15 -46 -29 -82 -31 -79 -7 6 55
187 103 300 25 59 47 106 49 104 2 -2 -18 -57 -45 -123z"/>
</g>
</svg>
